<svg width="18" height="18" viewBox="0 0 18 18" fill="none" xmlns="http://www.w3.org/2000/svg">
<g clip-path="url(#clip0_1_15849)">
<rect x="-213" y="-2414" width="1440" height="5838" fill="#F9F9F9"/>
<g filter="url(#filter0_d_1_15849)">
<rect x="-117" y="-257.301" width="395.993" height="297.602" rx="30.0228" fill="white"/>
<rect x="-117" y="-257.301" width="395.993" height="297.602" rx="30.0228" stroke="#F4F4F6" stroke-width="1.25095" stroke-linecap="round" stroke-linejoin="round"/>
</g>
<path d="M11.9993 17.687C13.7033 18.6197 15.2019 17.4893 14.876 15.511L14.2909 11.9589L16.7696 9.44334C18.1482 8.04428 17.5786 6.21108 15.6708 5.92245L12.2453 5.40421L10.7209 2.18842C9.86699 0.387088 8.01299 0.367713 7.1575 2.17244L5.62554 5.40421L2.19999 5.92245C0.294844 6.21067 -0.279337 8.0423 1.10119 9.44334L3.57994 11.9589L2.99479 15.511C2.66935 17.4865 4.16507 18.621 5.87149 17.687L8.9354 16.01L11.9993 17.687Z" fill="#6C5FBC"/>
<mask id="mask0_1_15849" style="mask-type:luminance" maskUnits="userSpaceOnUse" x="0" y="0" width="18" height="19">
<path d="M11.9993 17.687C13.7033 18.6197 15.2019 17.4893 14.876 15.511L14.2909 11.9589L16.7696 9.44334C18.1482 8.04428 17.5786 6.21108 15.6708 5.92245L12.2453 5.40421L10.7209 2.18842C9.86699 0.387088 8.01299 0.367713 7.1575 2.17244L5.62554 5.40421L2.19999 5.92245C0.294844 6.21067 -0.279337 8.0423 1.10119 9.44334L3.57994 11.9589L2.99479 15.511C2.66935 17.4865 4.16507 18.621 5.87149 17.687L8.9354 16.01L11.9993 17.687Z" fill="white"/>
</mask>
<g mask="url(#mask0_1_15849)">
</g>
<g filter="url(#filter1_d_1_15849)">
<path d="M-117 -197.255C-117 -225.561 -117 -239.714 -108.207 -248.507C-99.4131 -257.301 -85.2602 -257.301 -56.9545 -257.301H218.947C247.253 -257.301 261.406 -257.301 270.199 -248.507C278.993 -239.714 278.993 -225.561 278.993 -197.255V-81.1691H-117V-197.255Z" fill="white"/>
</g>
</g>
<defs>
<filter id="filter0_d_1_15849" x="-147.353" y="-257.926" width="468.591" height="405.874" filterUnits="userSpaceOnUse" color-interpolation-filters="sRGB">
<feFlood flood-opacity="0" result="BackgroundImageFix"/>
<feColorMatrix in="SourceAlpha" type="matrix" values="0 0 0 0 0 0 0 0 0 0 0 0 0 0 0 0 0 0 127 0" result="hardAlpha"/>
<feOffset dx="5.94564" dy="71.3477"/>
<feGaussianBlur stdDeviation="17.8369"/>
<feComposite in2="hardAlpha" operator="out"/>
<feColorMatrix type="matrix" values="0 0 0 0 0.898039 0 0 0 0 0.898039 0 0 0 0 0.898039 0 0 0 0.7 0"/>
<feBlend mode="normal" in2="BackgroundImageFix" result="effect1_dropShadow_1_15849"/>
<feBlend mode="normal" in="SourceGraphic" in2="effect1_dropShadow_1_15849" result="shape"/>
</filter>
<filter id="filter1_d_1_15849" x="-146.728" y="-257.301" width="467.34" height="283.153" filterUnits="userSpaceOnUse" color-interpolation-filters="sRGB">
<feFlood flood-opacity="0" result="BackgroundImageFix"/>
<feColorMatrix in="SourceAlpha" type="matrix" values="0 0 0 0 0 0 0 0 0 0 0 0 0 0 0 0 0 0 127 0" result="hardAlpha"/>
<feOffset dx="5.94564" dy="71.3477"/>
<feGaussianBlur stdDeviation="17.8369"/>
<feComposite in2="hardAlpha" operator="out"/>
<feColorMatrix type="matrix" values="0 0 0 0 0.196078 0 0 0 0 0.192157 0 0 0 0 0.258824 0 0 0 0.04 0"/>
<feBlend mode="normal" in2="BackgroundImageFix" result="effect1_dropShadow_1_15849"/>
<feBlend mode="normal" in="SourceGraphic" in2="effect1_dropShadow_1_15849" result="shape"/>
</filter>
<clipPath id="clip0_1_15849">
<rect width="1440" height="5838" fill="white" transform="translate(-213 -2414)"/>
</clipPath>
</defs>
</svg>
